<?xml version="1.0" encoding="UTF-8"?>
<svg version="1.1" xmlns="http://www.w3.org/2000/svg" width="400" height="136">
<path d="M0 0 C4.16662361 3.66375524 6.27377551 7.58399171 7.2109375 13.01953125 C6.37520992 17.53246019 4.81173487 19.16873388 1.5859375 22.39453125 C-1.50580002 23.94040001 -4.00835802 23.68812646 -7.4140625 23.39453125 C-9.8515625 21.39453125 -9.8515625 21.39453125 -11.4140625 19.39453125 C-10.4240625 18.07453125 -9.4340625 16.75453125 -8.4140625 15.39453125 C-10.7240625 16.38453125 -13.0340625 17.37453125 -15.4140625 18.39453125 C-15.74170553 22.49006907 -15.64475919 24.93313788 -13.7890625 28.64453125 C-10.53017924 32.41797502 -7.97069598 34.06372085 -2.96875 34.7109375 C4.28181222 35.03111902 10.01554333 33.32284063 16.5859375 30.39453125 C18.00519531 29.77578125 18.00519531 29.77578125 19.453125 29.14453125 C29.037215 24.67026112 37.35496189 18.49123919 45.6484375 11.99609375 C58.81972507 1.73229785 70.67041733 -3.8518755 87.5859375 -2.60546875 C93.02505183 -1.24158208 96.75531016 1.73669803 99.734375 6.46875 C101.3454814 10.11221538 101.21684171 12.41983475 100.5859375 16.39453125 C98.64039219 19.84630519 97.25169447 21.90151386 93.35546875 23.0546875 C89.0603944 23.66426575 87.31316254 23.87934794 83.5859375 21.39453125 C84.09197742 19.22578873 84.58577563 17.39485498 85.5859375 15.39453125 C83.6059375 16.05453125 81.6259375 16.71453125 79.5859375 17.39453125 C78.73952161 21.24187621 78.3961167 23.78947745 79.5859375 27.58203125 C82.68324629 31.93762173 85.82251279 33.91529876 90.99609375 34.8125 C108.46171754 35.76423502 124.45404955 23.75906196 137.625 13.66015625 C151.41423171 3.10902908 163.61060231 -4.90508519 181.5859375 -2.60546875 C185.55641163 -1.01633036 188.22783141 0.62417243 190.8984375 3.95703125 C191.38957031 4.55644531 191.88070313 5.15585937 192.38671875 5.7734375 C195.01124827 9.32125428 195.02351717 12.01873459 194.5859375 16.39453125 C192.68600521 19.60066698 191.25119743 21.79356043 187.6484375 23.09375 C183.94043342 23.74686435 182.03906439 23.61165455 178.5859375 21.95703125 C177.9259375 21.44140625 177.2659375 20.92578125 176.5859375 20.39453125 C177.5759375 18.74453125 178.5659375 17.09453125 179.5859375 15.39453125 C177.56548308 15.99636874 175.56482711 16.66759221 173.5859375 17.39453125 C172.15289686 20.26061254 172.27949595 22.20753908 172.5859375 25.39453125 C174.02405318 28.64592322 175.13876201 30.77557636 178.50390625 32.21484375 C184.14109763 33.63162459 189.80787262 33.61166104 195.5859375 33.39453125 C195.9159375 35.04453125 196.2459375 36.69453125 196.5859375 38.39453125 C194.21062356 38.44892775 191.83657867 38.48838989 189.4609375 38.51953125 C188.79578125 38.53628906 188.130625 38.55304688 187.4453125 38.5703125 C180.17078253 38.64163142 175.35793892 36.8704352 170.0703125 32.02734375 C167.38292107 29.07121318 166.64389068 26.35334873 166.52734375 22.4140625 C166.74768204 18.62566545 167.44667916 16.60341876 169.5859375 13.39453125 C173.16035846 11.01158395 175.30618125 10.86852775 179.5 10.92578125 C182.05716793 11.50042573 182.97632282 12.35898776 184.5859375 14.39453125 C185.2734375 16.58203125 185.2734375 16.58203125 185.5859375 18.39453125 C186.9059375 17.07453125 188.2259375 15.75453125 189.5859375 14.39453125 C188.35682452 8.61227784 188.35682452 8.61227784 184.5859375 4.39453125 C178.56882686 0.93013421 171.1156438 1.77915248 164.6484375 3.51953125 C155.8087089 6.52558802 148.66259629 11.18100148 141.5234375 17.08203125 C127.87620866 28.33355798 110.18264354 41.01466372 91.6953125 40.59765625 C85.67894702 40.01830254 81.78436711 37.98934014 77.7109375 33.51953125 C74.33304641 29.28559926 72.54777266 26.49359756 72.6484375 20.95703125 C73.82282346 16.4943646 75.06675719 14.40049776 78.5859375 11.39453125 C81.72752461 10.67251737 84.44429035 10.6728015 87.5859375 11.39453125 C90.05834218 13.635148 90.52903593 15.22382654 91.5859375 18.39453125 C93.77306555 16.79248506 93.77306555 16.79248506 95.5859375 14.39453125 C95.5859375 10.78666365 95.05291073 8.9949254 92.8359375 6.14453125 C87.44189518 1.949165 82.21140554 1.78429077 75.5859375 2.39453125 C64.70128518 4.431125 55.9149832 10.14581335 47.5234375 17.08203125 C33.82168029 28.37851417 15.26994923 41.92600762 -3.4140625 40.39453125 C-11.8449566 38.17305757 -16.48258737 34.36529342 -20.8515625 26.95703125 C-21.66540822 23.24951184 -21.63921655 19.96909836 -20.4140625 16.39453125 C-17.25313071 12.78203778 -15.51277613 11.5248871 -10.7265625 10.95703125 C-7.4140625 11.39453125 -7.4140625 11.39453125 -4.4140625 13.39453125 C-4.2265625 16.01953125 -4.2265625 16.01953125 -4.4140625 18.39453125 C-1.9390625 17.40453125 -1.9390625 17.40453125 0.5859375 16.39453125 C0.8963305 12.43702052 0.97273074 10.06398109 -1.0390625 6.58203125 C-5.56515598 2.41326094 -10.61971067 1.87638616 -16.578125 2.01953125 C-30.0556849 3.80168793 -41.07065568 12.48954036 -51.4309082 20.62060547 C-63.66387448 30.11684574 -79.93142835 41.40224505 -96.1171875 40.7421875 C-101.93568353 39.86149678 -107.49748542 37.93315293 -111.4140625 33.39453125 C-112.0740625 32.40453125 -112.7340625 31.41453125 -113.4140625 30.39453125 C-113.8471875 29.77578125 -114.2803125 29.15703125 -114.7265625 28.51953125 C-116.21593283 23.91602295 -116.07342872 19.83885725 -114.1015625 15.51953125 C-112.19707385 13.12128629 -110.58463907 11.57625382 -107.4765625 11.09375 C-101.92912868 11.06223049 -101.92912868 11.06223049 -99.4765625 12.64453125 C-98.31616631 14.55577203 -97.79285985 16.1975066 -97.4140625 18.39453125 C-96.0940625 18.06453125 -94.7740625 17.73453125 -93.4140625 17.39453125 C-93.0840625 13.76453125 -92.7540625 10.13453125 -92.4140625 6.39453125 C-103.21962088 2.14316402 -114.04606703 2.20487866 -124.9453125 6.359375 C-138.72041253 12.67296251 -146.98004985 24.66078701 -154.4140625 37.39453125 C-155.7340625 36.73453125 -157.0540625 36.07453125 -158.4140625 35.39453125 C-156.44016063 30.31878357 -154.06618728 26.16960783 -150.6640625 21.89453125 C-150.21796631 21.32847168 -149.77187012 20.76241211 -149.31225586 20.17919922 C-141.10299043 9.88914898 -130.9813915 0.35034101 -117.4140625 -1.60546875 C-114.35064445 -1.8407289 -111.29834995 -1.93850019 -108.2265625 -1.98046875 C-107.08562134 -2.00161743 -107.08562134 -2.00161743 -105.92163086 -2.02319336 C-99.3640872 -1.96668131 -94.80873564 -0.38873598 -89.4765625 3.58203125 C-87.22108288 6.65768528 -86.7931073 8.59942973 -87.05859375 12.40234375 C-87.82966163 16.72371318 -89.32769478 19.51369256 -92.7265625 22.26953125 C-95.89640563 23.59644233 -98.00572679 23.75712016 -101.4140625 23.39453125 C-103.7890625 22.39453125 -103.7890625 22.39453125 -105.4140625 21.39453125 C-104.7540625 19.74453125 -104.0940625 18.09453125 -103.4140625 16.39453125 C-106.3840625 16.88953125 -106.3840625 16.88953125 -109.4140625 17.39453125 C-110.26047839 21.24187621 -110.6038833 23.78947745 -109.4140625 27.58203125 C-106.87892635 31.14706647 -104.55597134 33.11845262 -100.4140625 34.39453125 C-90.96715995 35.74408876 -83.77897775 33.64200117 -75.4140625 29.39453125 C-73.89039062 28.6675 -73.89039062 28.6675 -72.3359375 27.92578125 C-65.09251992 24.28623153 -58.85194654 19.87324137 -52.43774414 14.95678711 C-38.55871335 4.33693504 -17.93756744 -11.08369342 0 0 Z " fill="#59B4D9" transform="translate(179.4140625,50.60546875)"/>
<path d="M0 0 C-5.22162837 6.11269123 -15.32033488 8.56819803 -23 10 C-27.46063832 10.29737589 -30.11815555 10.12657566 -34 8 C-33.41992188 8.01160156 -32.83984375 8.02320312 -32.2421875 8.03515625 C-31.07042969 8.04869141 -31.07042969 8.04869141 -29.875 8.0625 C-29.10929688 8.07410156 -28.34359375 8.08570312 -27.5546875 8.09765625 C-24.40724092 8.03132383 -24.40724092 8.03132383 -19 7 C-23.95 6.67 -28.9 6.34 -34 6 C-34 5.34 -34 4.68 -34 4 C-33.18917969 4.04640625 -32.37835938 4.0928125 -31.54296875 4.140625 C-20.01822814 4.51628593 -11.03371605 -1.60166846 0 0 Z " fill="#5EB4D6" transform="translate(206,81)"/>
<path d="M0 0 C1.28648437 -0.02578125 2.57296875 -0.0515625 3.8984375 -0.078125 C7.83578501 0.26855969 10.24475473 1.26162043 13.625 3.25 C12.965 3.58 12.305 3.91 11.625 4.25 C10.88894531 3.94320312 10.15289062 3.63640625 9.39453125 3.3203125 C6.17761967 2.07710549 3.74708601 2.04951459 0.3125 2.125 C-0.75613281 2.14304688 -1.82476562 2.16109375 -2.92578125 2.1796875 C-4.13814453 2.21449219 -4.13814453 2.21449219 -5.375 2.25 C-4.53195313 2.29898438 -3.68890625 2.34796875 -2.8203125 2.3984375 C-1.17675781 2.51058594 -1.17675781 2.51058594 0.5 2.625 C1.59054688 2.69460937 2.68109375 2.76421875 3.8046875 2.8359375 C6.625 3.25 6.625 3.25 8.625 5.25 C7.30048828 5.18039063 7.30048828 5.18039063 5.94921875 5.109375 C-1.5330909 4.88434313 -7.3571358 5.43173833 -14.265625 8.375 C-16.375 9.25 -16.375 9.25 -18.375 9.25 C-18.375 8.26 -18.375 7.27 -18.375 6.25 C-19.035 5.92 -19.695 5.59 -20.375 5.25 C-18.96021865 4.60004703 -17.54308513 3.95521278 -16.125 3.3125 C-15.33609375 2.95285156 -14.5471875 2.59320313 -13.734375 2.22265625 C-9.08630622 0.3064822 -5.04592096 0.06043019 0 0 Z " fill="#5DB4D8" transform="translate(165.375,47.75)"/>
<path d="M0 0 C0.33 0.99 0.66 1.98 1 3 C-1.38933627 4.65600539 -3.78567268 6.2997889 -6.1875 7.9375 C-6.86103516 8.40607422 -7.53457031 8.87464844 -8.22851562 9.35742188 C-14.71754681 13.75730156 -14.71754681 13.75730156 -19 14 C-19.66 13.67 -20.32 13.34 -21 13 C-19.66567108 8.99701323 -17.94615226 8.53806326 -14.3125 6.5 C-13.27738281 5.9121875 -12.24226562 5.324375 -11.17578125 4.71875 C-2.45681818 0 -2.45681818 0 0 0 Z " fill="#52B8E3" transform="translate(222,68)"/>
<path d="M0 0 C0.61875 0.86625 0.61875 0.86625 1.25 1.75 C4.89982802 6.44263602 7.98550208 9.58609225 14.015625 10.4140625 C15.08296875 10.48367187 16.1503125 10.55328125 17.25 10.625 C18.32765625 10.69976562 19.4053125 10.77453125 20.515625 10.8515625 C21.33546875 10.90054688 22.1553125 10.94953125 23 11 C23 11.33 23 11.66 23 12 C17.06 12.495 17.06 12.495 11 13 C14.63 13.66 18.26 14.32 22 15 C22 15.33 22 15.66 22 16 C14.22587486 16.50155646 7.52623439 15.47271432 1.1875 10.609375 C-0.25 9.125 -0.25 9.125 -2 6 C-1.3125 2.625 -1.3125 2.625 0 0 Z " fill="#5AB6D8" transform="translate(68,75)"/>
<path d="M0 0 C0.99 0.66 1.98 1.32 3 2 C3.1875 4.625 3.1875 4.625 3 7 C1.68 6.67 0.36 6.34 -1 6 C-1 5.34 -1 4.68 -1 4 C-4.70992273 5.12226308 -4.70992273 5.12226308 -8 7 C-9.0615942 10.58863524 -9.0615942 10.58863524 -9 14 C-9.33 14 -9.66 14 -10 14 C-10.33 11.69 -10.66 9.38 -11 7 C-11.66 8.98 -12.32 10.96 -13 13 C-13.33 13 -13.66 13 -14 13 C-13.7581864 5.86649874 -13.7581864 5.86649874 -10.375 2 C-6.48510507 -0.30512292 -4.44552136 -0.58714433 0 0 Z " fill="#59B4D9" transform="translate(172,62)"/>
<path d="M0 0 C5.17021067 0.03088537 9.51003894 0.67135814 14.4375 2.1875 C14.7675 3.8375 15.0975 5.4875 15.4375 7.1875 C14.84324219 6.9709375 14.24898438 6.754375 13.63671875 6.53125 C7.08227678 4.32944679 1.3240622 3.83400726 -5.5625 4.1875 C-5.8925 3.1975 -6.2225 2.2075 -6.5625 1.1875 C-4.80581507 -0.56918493 -2.38152718 0.01490317 0 0 Z " fill="#4FB3E4" transform="translate(259.5625,48.8125)"/>
<path d="M0 0 C8.30085731 -0.51345509 14.51935975 0.29278005 22 4 C22.33 6.31 22.66 8.62 23 11 C19.8585564 9.16749123 16.77397973 7.36301977 14 5 C14 4.34 14 3.68 14 3 C9.05 2.67 4.1 2.34 -1 2 C-0.67 1.34 -0.34 0.68 0 0 Z " fill="#43B4F1" transform="translate(160,49)"/>
<path d="M0 0 C-0.33 0.99 -0.66 1.98 -1 3 C-1.69867188 3.13277344 -2.39734375 3.26554687 -3.1171875 3.40234375 C-4.02726562 3.57894531 -4.93734375 3.75554688 -5.875 3.9375 C-7.23238281 4.19853516 -7.23238281 4.19853516 -8.6171875 4.46484375 C-10.99956317 4.89963701 -10.99956317 4.89963701 -13 6 C-14.99960012 6.039992 -17.00047242 6.04346799 -19 6 C-19 5.34 -19 4.68 -19 4 C-12.37384327 0.90133798 -7.32627475 -0.47266289 0 0 Z " fill="#4EB2E3" transform="translate(68,51)"/>
<path d="M0 0 C0 0.33 0 0.66 0 1 C-1.53720703 1.07347656 -1.53720703 1.07347656 -3.10546875 1.1484375 C-4.4661706 1.22351071 -5.82684644 1.29905655 -7.1875 1.375 C-7.86103516 1.4059375 -8.53457031 1.436875 -9.22851562 1.46875 C-13.19678975 1.70103922 -16.40729879 2.28387476 -20 4 C-19.01 4.66 -18.02 5.32 -17 6 C-21.455 7.485 -21.455 7.485 -26 9 C-25 7 -25 7 -24 6 C-25.32 5.67 -26.64 5.34 -28 5 C-18.43505948 -0.07231694 -10.52396779 -0.60098801 0 0 Z " fill="#67B5D0" transform="translate(361,48)"/>
<path d="M0 0 C0 0.66 0 1.32 0 2 C-6.75999446 5.24999734 -12.62768528 5.56882857 -20 4 C-20.33 3.34 -20.66 2.68 -21 2 C-18.06271706 1.66465271 -15.12520182 1.33163987 -12.1875 1 C-11.35412109 0.90460938 -10.52074219 0.80921875 -9.66210938 0.7109375 C-8.45844727 0.57558594 -8.45844727 0.57558594 -7.23046875 0.4375 C-6.12288208 0.31181641 -6.12288208 0.31181641 -4.99291992 0.18359375 C-3 0 -3 0 0 0 Z " fill="#40B5F0" transform="translate(99,85)"/>
<path d="M0 0 C2.97 0.495 2.97 0.495 6 1 C6 1.99 6 2.98 6 4 C9.3 4 12.6 4 16 4 C15.67 4.99 15.34 5.98 15 7 C10.92344518 6.98735952 6.99259074 6.8637033 3 6 C0.75 2.9375 0.75 2.9375 0 0 Z " fill="#4BB3EC" transform="translate(260,83)"/>
<path d="M0 0 C0.33 0 0.66 0 1 0 C1.33 4.95 1.66 9.9 2 15 C0.68 15 -0.64 15 -2 15 C-3.44767442 6.01744186 -3.44767442 6.01744186 -1.625 1.875 C-1.08875 1.25625 -0.5525 0.6375 0 0 Z " fill="#4BB6E9" transform="translate(350,66)"/>
<path d="M0 0 C0.66 0.33 1.32 0.66 2 1 C2.125 6.75 2.125 6.75 1 9 C1.66 9 2.32 9 3 9 C3.33 6.36 3.66 3.72 4 1 C4.33 1 4.66 1 5 1 C5.602537 7.02536998 5.602537 7.02536998 3.88671875 9.80078125 C2.65378147 11.25599455 1.33191067 12.63479157 0 14 C-0.99 13.67 -1.98 13.34 -3 13 C-3 12.67 -3 12.34 -3 12 C-3.66 11.67 -4.32 11.34 -5 11 C-3.7625 9.948125 -3.7625 9.948125 -2.5 8.875 C0.30423396 6.21372773 0.30423396 6.21372773 0.3125 2.6875 C0.209375 1.800625 0.10625 0.91375 0 0 Z " fill="#62B2CE" transform="translate(369,59)"/>
<path d="M0 0 C0.33 0.66 0.66 1.32 1 2 C1.66 2 2.32 2 3 2 C1.61122646 5.35620271 0.08322035 7.07298728 -3 9 C-3.66 9 -4.32 9 -5 9 C-5 8.34 -5 7.68 -5 7 C-6.32 7.33 -7.64 7.66 -9 8 C-6.14723863 5.06799526 -3.34920216 2.35684596 0 0 Z " fill="#5AB6DC" transform="translate(227,61)"/>
<path d="M0 0 C0.5775 0.78375 1.155 1.5675 1.75 2.375 C5.39891297 6.63206513 8.52541092 7.25346513 14 8 C14 8.33 14 8.66 14 9 C1 9 1 9 -0.6875 7.5 C-1.120625 7.005 -1.55375 6.51 -2 6 C-1.67 5.34 -1.34 4.68 -1 4 C-0.64830932 2.67139075 -0.31229724 1.33841672 0 0 Z " fill="#60B2CF" transform="translate(351,76)"/>
<path d="M0 0 C-1.6232687 0.6708712 -3.24867578 1.33657029 -4.875 2 C-5.77992187 2.37125 -6.68484375 2.7425 -7.6171875 3.125 C-10 4 -10 4 -12 4 C-12 4.66 -12 5.32 -12 6 C-11.01 6.33 -10.02 6.66 -9 7 C-11.25 8.125 -11.25 8.125 -14 9 C-16.171875 8.0546875 -16.171875 8.0546875 -18 7 C-5.5 -1.83333333 -5.5 -1.83333333 0 0 Z " fill="#66B8D6" transform="translate(61,51)"/>
<path d="M0 0 C1.63001953 0.01353516 1.63001953 0.01353516 3.29296875 0.02734375 C4.12441406 0.03894531 4.95585937 0.05054688 5.8125 0.0625 C5.8125 0.7225 5.8125 1.3825 5.8125 2.0625 C5.01585937 2.12308594 4.21921875 2.18367188 3.3984375 2.24609375 C-4.43082697 2.85917866 -4.43082697 2.85917866 -12.1875 4.0625 C-8.49398765 0.01722457 -5.31714739 -0.05717363 0 0 Z " fill="#3FB5F5" transform="translate(352.1875,48.9375)"/>
<path d="M0 0 C5.28 0 10.56 0 16 0 C15.67 0.66 15.34 1.32 15 2 C10.05122578 3.05390562 4.88947792 3.46684337 0 2 C0 1.34 0 0.68 0 0 Z " fill="#42B5F1" transform="translate(172,87)"/>
<path d="M0 0 C0 0.99 0 1.98 0 3 C-2.27837542 5.27837542 -3.50812237 5.96646289 -6.75 6.1875 C-7.86375 6.0946875 -7.86375 6.0946875 -9 6 C-8.6875 4.125 -8.6875 4.125 -8 2 C-4.77208445 -0.1519437 -3.71599191 -0.20086443 0 0 Z " fill="#4DB8E7" transform="translate(134,64)"/>
<path d="M0 0 C2.375 0.25 2.375 0.25 5 1 C6.3125 3.0625 6.3125 3.0625 7 5 C6.01 5.66 5.02 6.32 4 7 C0.3125 5.625 0.3125 5.625 -3 4 C-2.01 3.67 -1.02 3.34 0 3 C0 2.01 0 1.02 0 0 Z " fill="#52B7DE" transform="translate(81,50)"/>
<path d="M0 0 C0.66 0.33 1.32 0.66 2 1 C1.67 1.66 1.34 2.32 1 3 C1.99 3.33 2.98 3.66 4 4 C2.40084119 4.69906942 0.79544955 5.38389468 -0.8125 6.0625 C-1.70582031 6.44535156 -2.59914063 6.82820313 -3.51953125 7.22265625 C-6 8 -6 8 -9 7 C-6.09399739 5.74335022 -4.20395416 5 -1 5 C-1 4.34 -1 3.68 -1 3 C-3.31 3.33 -5.62 3.66 -8 4 C-5.31143836 2.20762558 -3.0466145 1.01553817 0 0 Z " fill="#67B6D4" transform="translate(100,82)"/>
<path d="M0 0 C2.475 0.99 2.475 0.99 5 2 C5 4.64 5 7.28 5 10 C3.68 10.33 2.36 10.66 1 11 C1.020625 9.9275 1.04125 8.855 1.0625 7.75 C1.0142016 4.85209576 0.86844115 2.71387859 0 0 Z " fill="#4BB4E9" transform="translate(275,57)"/>
<path d="M0 0 C1.70840281 1.63412443 2.93453047 2.86906094 4 5 C4.04022391 7.3329866 4.04320247 9.66706666 4 12 C3.67 12 3.34 12 3 12 C2.67 10.35 2.34 8.7 2 7 C1.34 7 0.68 7 0 7 C0 8.98 0 10.96 0 13 C-0.66 12.67 -1.32 12.34 -2 12 C-2 9.36 -2 6.72 -2 4 C-1.34 4 -0.68 4 0 4 C0 2.68 0 1.36 0 0 Z " fill="#60B1CE" transform="translate(182,55)"/>
<path d="M0 0 C7.38804781 -0.36334661 7.38804781 -0.36334661 10 1.1875 C11.30894168 3.55995679 11.21620175 5.3335118 11 8 C9.35 7.01 7.7 6.02 6 5 C6.33 3.68 6.66 2.36 7 1 C4.36 1.33 1.72 1.66 -1 2 C-0.67 1.34 -0.34 0.68 0 0 Z " fill="#63B3D1" transform="translate(70,62)"/>
<path d="M0 0 C0.66 0.33 1.32 0.66 2 1 C2 1.66 2 2.32 2 3 C2.66 3 3.32 3 4 3 C4 3.99 4 4.98 4 6 C1.36 5.67 -1.28 5.34 -4 5 C-2.25 1.125 -2.25 1.125 0 0 Z " fill="#45B9ED" transform="translate(78,67)"/>
<path d="M0 0 C2.5 1 2.5 1 5 3 C5.66313412 6.44970833 5.59391967 9.81216067 4 13 C3.34 13 2.68 13 2 13 C2.04125 11.783125 2.0825 10.56625 2.125 9.3125 C2.13754508 5.78105873 1.59998217 3.19996434 0 0 Z " fill="#44B5ED" transform="translate(368,55)"/>
<path d="M0 0 C4.29 0.66 8.58 1.32 13 2 C13 2.66 13 3.32 13 4 C9.37 4 5.74 4 2 4 C1.34 2.68 0.68 1.36 0 0 Z " fill="#45B4ED" transform="translate(353,83)"/>
<path d="M0 0 C-0.33 0.99 -0.66 1.98 -1 3 C-4.5625 4.1875 -4.5625 4.1875 -8 5 C-8 3.68 -8 2.36 -8 1 C-5.29120665 -0.35439668 -2.99066732 -0.06501451 0 0 Z " fill="#4AB5E9" transform="translate(77,63)"/>
<path d="M0 0 C1.65322266 0.01740234 1.65322266 0.01740234 3.33984375 0.03515625 C4.99693359 0.04869141 4.99693359 0.04869141 6.6875 0.0625 C7.54214844 0.07410156 8.39679688 0.08570313 9.27734375 0.09765625 C8.94734375 0.75765625 8.61734375 1.41765625 8.27734375 2.09765625 C6.28125 2.4765625 6.28125 2.4765625 3.83984375 2.66015625 C0.4310617 2.90377375 0.4310617 2.90377375 -2.72265625 4.09765625 C-3.05265625 3.10765625 -3.38265625 2.11765625 -3.72265625 1.09765625 C-2.72265625 0.09765625 -2.72265625 0.09765625 0 0 Z " fill="#3FB7F4" transform="translate(256.72265625,48.90234375)"/>
<path d="M0 0 C-0.66 2.97 -1.32 5.94 -2 9 C-2.33 9 -2.66 9 -3 9 C-3.33 6.69 -3.66 4.38 -4 2 C-4.66 3.98 -5.32 5.96 -6 8 C-6.33 8 -6.66 8 -7 8 C-6.67 5.36 -6.34 2.72 -6 0 C-3 -1 -3 -1 0 0 Z " fill="#61AED0" transform="translate(165,67)"/>
<path d="M0 0 C0.99 0.33 1.98 0.66 3 1 C3.33 3.31 3.66 5.62 4 8 C0.73539027 6.19587357 -0.88929795 5.16605307 -3 2 C-2.01 1.67 -1.02 1.34 0 1 C0 0.67 0 0.34 0 0 Z " fill="#50B5E0" transform="translate(179,52)"/>
<path d="M0 0 C1.31471568 0.28151087 2.62675767 0.57553339 3.9375 0.875 C4.66839844 1.03742188 5.39929688 1.19984375 6.15234375 1.3671875 C8 2 8 2 9 4 C8.01 4 7.02 4 6 4 C6.66 5.32 7.32 6.64 8 8 C4.63820226 6.55922954 2.40843732 4.75249979 0 2 C0 1.34 0 0.68 0 0 Z " fill="#63AFCC" transform="translate(255,80)"/>
<path d="M0 0 C-0.625 2.4375 -0.625 2.4375 -2 5 C-5.125 5.8125 -5.125 5.8125 -8 6 C-8 5.34 -8 4.68 -8 4 C-2.58823529 0 -2.58823529 0 0 0 Z " fill="#47B4EB" transform="translate(312,71)"/>
<path d="M0 0 C1.22589844 0.15275391 1.22589844 0.15275391 2.4765625 0.30859375 C3.41628906 0.43427734 3.41628906 0.43427734 4.375 0.5625 C1.6894406 3.2480594 -1.00121328 3.62299974 -4.625 4.5625 C-3.625 2.5625 -3.625 2.5625 -2.625 1.5625 C-3.945 1.2325 -5.265 0.9025 -6.625 0.5625 C-4.10446405 -0.69776798 -2.7707902 -0.35624445 0 0 Z " fill="#5BB4D4" transform="translate(339.625,52.4375)"/>
<path d="M0 0 C2.97 0 5.94 0 9 0 C8.67 0.99 8.34 1.98 8 3 C5.36 2.67 2.72 2.34 0 2 C0 1.34 0 0.68 0 0 Z " fill="#3CB6F2" transform="translate(267,87)"/>
<path d="M0 0 C2.31 0.33 4.62 0.66 7 1 C7 1.99 7 2.98 7 4 C5.02 4 3.04 4 1 4 C0.67 2.68 0.34 1.36 0 0 Z " fill="#43B8EB" transform="translate(265,70)"/>
<path d="M0 0 C-0.33 1.32 -0.66 2.64 -1 4 C-2.98 4 -4.96 4 -7 4 C-6.67 3.01 -6.34 2.02 -6 1 C-3 0 -3 0 0 0 Z " fill="#4AB3E8" transform="translate(108,81)"/>
<path d="M0 0 C0.66 0.33 1.32 0.66 2 1 C1.67 4.3 1.34 7.6 1 11 C0.67 11 0.34 11 0 11 C0 9.02 0 7.04 0 5 C-0.66 5 -1.32 5 -2 5 C-1.34 3.35 -0.68 1.7 0 0 Z " fill="#60B4D9" transform="translate(67,64)"/>
<path d="M0 0 C0 0.66 0 1.32 0 2 C3.465 1.505 3.465 1.505 7 1 C4.3144406 3.6855594 1.62378672 4.06049974 -2 5 C-2 4.01 -2 3.02 -2 2 C-2.66 1.67 -3.32 1.34 -4 1 C-2 0 -2 0 0 0 Z " fill="#60B0CF" transform="translate(149,52)"/>
<path d="M0 0 C0.99 0 1.98 0 3 0 C3.33 1.65 3.66 3.3 4 5 C0.7 4.01 -2.6 3.02 -6 2 C-2 1 -2 1 0 2 C0 1.34 0 0.68 0 0 Z " fill="#55B2D9" transform="translate(271,51)"/>
<path d="M0 0 C0.99 0 1.98 0 3 0 C3 1.65 3 3.3 3 5 C1.68 5.33 0.36 5.66 -1 6 C-1.042721 4.33388095 -1.04063832 2.66617115 -1 1 C-0.67 0.67 -0.34 0.34 0 0 Z " fill="#4CB5E5" transform="translate(255,65)"/>
<path d="M0 0 C-0.3125 1.9375 -0.3125 1.9375 -1 4 C-1.99 4.33 -2.98 4.66 -4 5 C-4.66 4.67 -5.32 4.34 -6 4 C-6 3.01 -6 2.02 -6 1 C-3.92446352 0.4465236 -2.15634036 0 0 0 Z " fill="#4DB3E9" transform="translate(234,59)"/>
<path d="M0 0 C0.66 0 1.32 0 2 0 C2.33 1.65 2.66 3.3 3 5 C1.68 5.33 0.36 5.66 -1 6 C-1.33 4.68 -1.66 3.36 -2 2 C-1.34 2 -0.68 2 0 2 C0 1.34 0 0.68 0 0 Z " fill="#3EB6F7" transform="translate(361,66)"/>
<path d="M0 0 C2.475 0.99 2.475 0.99 5 2 C3.35 3.32 1.7 4.64 0 6 C0 5.34 0 4.68 0 4 C-0.99 3.67 -1.98 3.34 -3 3 C-2.01 2.01 -1.02 1.02 0 0 Z " fill="#5FB4D0" transform="translate(134,60)"/>
<path d="M0 0 C0.99 0.33 1.98 0.66 3 1 C1.1875 3 1.1875 3 -1 5 C-1.99 5 -2.98 5 -4 5 C-2.25 1.125 -2.25 1.125 0 0 Z " fill="#4BB2E8" transform="translate(45,58)"/>
<path d="M0 0 C1.65 1.32 3.3 2.64 5 4 C4.67 4.66 4.34 5.32 4 6 C3.34 5.67 2.68 5.34 2 5 C1.67 5.66 1.34 6.32 1 7 C-0.32 5.35 -1.64 3.7 -3 2 C-2.01 2 -1.02 2 0 2 C0 1.34 0 0.68 0 0 Z " fill="#5FAFCC" transform="translate(367,52)"/>
<path d="M0 0 C3 3.75 3 3.75 3 6 C2.34 6 1.68 6 1 6 C0.67 6.99 0.34 7.98 0 9 C-1.125 6.75 -1.125 6.75 -2 4 C-1.125 1.6875 -1.125 1.6875 0 0 Z " fill="#5FAFCE" transform="translate(68,75)"/>
<path d="M0 0 C2.97 0 5.94 0 9 0 C8.67 0.99 8.34 1.98 8 3 C5.6568787 2.74438677 3.32156597 2.40729228 1 2 C0.67 1.34 0.34 0.68 0 0 Z " fill="#3DBAED" transform="translate(59,51)"/>
<path d="M0 0 C1.65 0 3.3 0 5 0 C5 1.65 5 3.3 5 5 C3.68 4.67 2.36 4.34 1 4 C0.67 2.68 0.34 1.36 0 0 Z " fill="#50B2E6" transform="translate(167,84)"/>
<path d="M0 0 C0 1.98 0 3.96 0 6 C-0.99 6.33 -1.98 6.66 -3 7 C-3 5.02 -3 3.04 -3 1 C-1 0 -1 0 0 0 Z " fill="#45B6EF" transform="translate(185,61)"/>
<path d="M0 0 C0.33 0.66 0.66 1.32 1 2 C-0.25 3.5 -0.25 3.5 -2 5 C-3.32 5 -4.64 5 -6 5 C-5.25 3.0625 -5.25 3.0625 -4 1 C-1.875 0.25 -1.875 0.25 0 0 Z " fill="#46B4E8" transform="translate(337,53)"/>
<path d="M0 0 C5.75 0.875 5.75 0.875 8 2 C8 2.66 8 3.32 8 4 C6.35 4 4.7 4 3 4 C3 3.34 3 2.68 3 2 C2.01 1.67 1.02 1.34 0 1 C0 0.67 0 0.34 0 0 Z " fill="#43B2F1" transform="translate(359,50)"/>
<path d="M0 0 C0.66 0 1.32 0 2 0 C4 3 4 3 5 6 C3.68 5.67 2.36 5.34 1 5 C0.67 3.35 0.34 1.7 0 0 Z " fill="#3FB8EF" transform="translate(255,76)"/>
<path d="M0 0 C0.66 0 1.32 0 2 0 C1.67 1.32 1.34 2.64 1 4 C-0.65 4.33 -2.3 4.66 -4 5 C-2.71937515 3.2925002 -1.38232443 1.62626404 0 0 Z " fill="#4AB4E4" transform="translate(323,61)"/>
</svg>
